<mxfile host="app.diagrams.net" agent="Mozilla/5.0 (Windows NT 10.0; Win64; x64; rv:134.0) Gecko/20100101 Firefox/134.0" version="26.0.2">
  <diagram name="第 1 页" id="oLJNAEdhJsgSDibkkSxl">
    <mxGraphModel dx="2129" dy="815" grid="1" gridSize="10" guides="1" tooltips="1" connect="1" arrows="1" fold="1" page="1" pageScale="1" pageWidth="827" pageHeight="1169" math="0" shadow="0">
      <root>
        <mxCell id="0" />
        <mxCell id="1" parent="0" />
        <mxCell id="gE1-QyrIkyjky4b_8ItB-76" value="" style="rounded=0;whiteSpace=wrap;html=1;strokeWidth=3;" vertex="1" parent="1">
          <mxGeometry x="-20" y="290" width="1410" height="440" as="geometry" />
        </mxCell>
        <mxCell id="gE1-QyrIkyjky4b_8ItB-61" value="" style="group" vertex="1" connectable="0" parent="1">
          <mxGeometry x="40" y="690" width="320" height="160" as="geometry" />
        </mxCell>
        <mxCell id="gE1-QyrIkyjky4b_8ItB-36" value="" style="group" vertex="1" connectable="0" parent="gE1-QyrIkyjky4b_8ItB-61">
          <mxGeometry y="60" width="320" height="100" as="geometry" />
        </mxCell>
        <mxCell id="gE1-QyrIkyjky4b_8ItB-37" value="" style="dashed=0;fillStyle=auto;fillColor=#C6D8F0;gradientColor=none;" vertex="1" parent="gE1-QyrIkyjky4b_8ItB-36">
          <mxGeometry x="20" width="300" height="80" as="geometry" />
        </mxCell>
        <mxCell id="gE1-QyrIkyjky4b_8ItB-38" value="" style="dashed=0;fillStyle=auto;fillColor=#C6D8F0;gradientColor=none;" vertex="1" parent="gE1-QyrIkyjky4b_8ItB-36">
          <mxGeometry x="10" y="10" width="300" height="80" as="geometry" />
        </mxCell>
        <mxCell id="gE1-QyrIkyjky4b_8ItB-39" value="" style="dashed=0;fillStyle=auto;fillColor=#C6D8F0;gradientColor=none;" vertex="1" parent="gE1-QyrIkyjky4b_8ItB-36">
          <mxGeometry y="20" width="300" height="80" as="geometry" />
        </mxCell>
        <mxCell id="gE1-QyrIkyjky4b_8ItB-40" value="" style="endArrow=none;html=1;rounded=0;entryX=1;entryY=0.25;entryDx=0;entryDy=0;exitX=0;exitY=0.25;exitDx=0;exitDy=0;" edge="1" parent="gE1-QyrIkyjky4b_8ItB-36" source="gE1-QyrIkyjky4b_8ItB-39" target="gE1-QyrIkyjky4b_8ItB-39">
          <mxGeometry width="50" height="50" relative="1" as="geometry">
            <mxPoint x="180" y="-20" as="sourcePoint" />
            <mxPoint x="260" y="-20" as="targetPoint" />
          </mxGeometry>
        </mxCell>
        <mxCell id="gE1-QyrIkyjky4b_8ItB-41" value="" style="endArrow=none;html=1;rounded=0;entryX=1;entryY=0.25;entryDx=0;entryDy=0;exitX=0;exitY=0.25;exitDx=0;exitDy=0;" edge="1" parent="gE1-QyrIkyjky4b_8ItB-36">
          <mxGeometry width="50" height="50" relative="1" as="geometry">
            <mxPoint y="59.829999999999984" as="sourcePoint" />
            <mxPoint x="300" y="59.829999999999984" as="targetPoint" />
          </mxGeometry>
        </mxCell>
        <mxCell id="gE1-QyrIkyjky4b_8ItB-42" value="" style="endArrow=none;html=1;rounded=0;entryX=1;entryY=0.25;entryDx=0;entryDy=0;exitX=0;exitY=0.25;exitDx=0;exitDy=0;" edge="1" parent="gE1-QyrIkyjky4b_8ItB-36">
          <mxGeometry width="50" height="50" relative="1" as="geometry">
            <mxPoint y="80" as="sourcePoint" />
            <mxPoint x="300" y="80" as="targetPoint" />
          </mxGeometry>
        </mxCell>
        <mxCell id="gE1-QyrIkyjky4b_8ItB-43" value="" style="endArrow=none;html=1;rounded=0;" edge="1" parent="gE1-QyrIkyjky4b_8ItB-36">
          <mxGeometry width="50" height="50" relative="1" as="geometry">
            <mxPoint x="60" y="100" as="sourcePoint" />
            <mxPoint x="60" y="20" as="targetPoint" />
          </mxGeometry>
        </mxCell>
        <mxCell id="gE1-QyrIkyjky4b_8ItB-44" value="" style="endArrow=none;html=1;rounded=0;" edge="1" parent="gE1-QyrIkyjky4b_8ItB-36">
          <mxGeometry width="50" height="50" relative="1" as="geometry">
            <mxPoint x="120" y="100" as="sourcePoint" />
            <mxPoint x="120" y="20" as="targetPoint" />
          </mxGeometry>
        </mxCell>
        <mxCell id="gE1-QyrIkyjky4b_8ItB-45" value="" style="endArrow=none;html=1;rounded=0;" edge="1" parent="gE1-QyrIkyjky4b_8ItB-36">
          <mxGeometry width="50" height="50" relative="1" as="geometry">
            <mxPoint x="180" y="100" as="sourcePoint" />
            <mxPoint x="180" y="20" as="targetPoint" />
          </mxGeometry>
        </mxCell>
        <mxCell id="gE1-QyrIkyjky4b_8ItB-46" value="" style="endArrow=none;html=1;rounded=0;" edge="1" parent="gE1-QyrIkyjky4b_8ItB-36">
          <mxGeometry width="50" height="50" relative="1" as="geometry">
            <mxPoint x="240" y="100" as="sourcePoint" />
            <mxPoint x="240" y="20" as="targetPoint" />
          </mxGeometry>
        </mxCell>
        <mxCell id="gE1-QyrIkyjky4b_8ItB-60" value="Cold Set" style="text;strokeColor=none;align=center;fillColor=none;verticalAlign=middle;rounded=0;fontStyle=0;fontSize=36;" vertex="1" parent="gE1-QyrIkyjky4b_8ItB-61">
          <mxGeometry x="70" width="180" height="60" as="geometry" />
        </mxCell>
        <mxCell id="gE1-QyrIkyjky4b_8ItB-62" value="" style="group" vertex="1" connectable="0" parent="1">
          <mxGeometry x="40" y="450" width="320" height="160" as="geometry" />
        </mxCell>
        <mxCell id="gE1-QyrIkyjky4b_8ItB-9" value="Data Set" style="text;strokeColor=none;align=center;fillColor=none;verticalAlign=middle;rounded=0;fontStyle=0;fontSize=36;" vertex="1" parent="gE1-QyrIkyjky4b_8ItB-62">
          <mxGeometry x="70" width="180" height="60" as="geometry" />
        </mxCell>
        <mxCell id="gE1-QyrIkyjky4b_8ItB-35" value="" style="group" vertex="1" connectable="0" parent="gE1-QyrIkyjky4b_8ItB-62">
          <mxGeometry y="60" width="320" height="100" as="geometry" />
        </mxCell>
        <mxCell id="gE1-QyrIkyjky4b_8ItB-5" value="" style="dashed=0;fillStyle=auto;fillColor=#D9D9D8;gradientColor=none;" vertex="1" parent="gE1-QyrIkyjky4b_8ItB-35">
          <mxGeometry x="20" width="300" height="80" as="geometry" />
        </mxCell>
        <mxCell id="gE1-QyrIkyjky4b_8ItB-10" value="" style="dashed=0;fillStyle=auto;fillColor=#D9D9D8;gradientColor=none;" vertex="1" parent="gE1-QyrIkyjky4b_8ItB-35">
          <mxGeometry x="10" y="10" width="300" height="80" as="geometry" />
        </mxCell>
        <mxCell id="gE1-QyrIkyjky4b_8ItB-11" value="" style="dashed=0;fillStyle=auto;fillColor=#D9D9D8;gradientColor=none;" vertex="1" parent="gE1-QyrIkyjky4b_8ItB-35">
          <mxGeometry y="20" width="300" height="80" as="geometry" />
        </mxCell>
        <mxCell id="gE1-QyrIkyjky4b_8ItB-18" value="" style="endArrow=none;html=1;rounded=0;entryX=1;entryY=0.25;entryDx=0;entryDy=0;exitX=0;exitY=0.25;exitDx=0;exitDy=0;" edge="1" parent="gE1-QyrIkyjky4b_8ItB-35" source="gE1-QyrIkyjky4b_8ItB-11" target="gE1-QyrIkyjky4b_8ItB-11">
          <mxGeometry width="50" height="50" relative="1" as="geometry">
            <mxPoint x="180" y="-20" as="sourcePoint" />
            <mxPoint x="260" y="-20" as="targetPoint" />
          </mxGeometry>
        </mxCell>
        <mxCell id="gE1-QyrIkyjky4b_8ItB-22" value="" style="endArrow=none;html=1;rounded=0;entryX=1;entryY=0.25;entryDx=0;entryDy=0;exitX=0;exitY=0.25;exitDx=0;exitDy=0;" edge="1" parent="gE1-QyrIkyjky4b_8ItB-35">
          <mxGeometry width="50" height="50" relative="1" as="geometry">
            <mxPoint y="59.829999999999984" as="sourcePoint" />
            <mxPoint x="300" y="59.829999999999984" as="targetPoint" />
          </mxGeometry>
        </mxCell>
        <mxCell id="gE1-QyrIkyjky4b_8ItB-23" value="" style="endArrow=none;html=1;rounded=0;entryX=1;entryY=0.25;entryDx=0;entryDy=0;exitX=0;exitY=0.25;exitDx=0;exitDy=0;" edge="1" parent="gE1-QyrIkyjky4b_8ItB-35">
          <mxGeometry width="50" height="50" relative="1" as="geometry">
            <mxPoint y="80" as="sourcePoint" />
            <mxPoint x="300" y="80" as="targetPoint" />
          </mxGeometry>
        </mxCell>
        <mxCell id="gE1-QyrIkyjky4b_8ItB-26" value="" style="endArrow=none;html=1;rounded=0;" edge="1" parent="gE1-QyrIkyjky4b_8ItB-35">
          <mxGeometry width="50" height="50" relative="1" as="geometry">
            <mxPoint x="60" y="100" as="sourcePoint" />
            <mxPoint x="60" y="20" as="targetPoint" />
          </mxGeometry>
        </mxCell>
        <mxCell id="gE1-QyrIkyjky4b_8ItB-31" value="" style="endArrow=none;html=1;rounded=0;" edge="1" parent="gE1-QyrIkyjky4b_8ItB-35">
          <mxGeometry width="50" height="50" relative="1" as="geometry">
            <mxPoint x="120" y="100" as="sourcePoint" />
            <mxPoint x="120" y="20" as="targetPoint" />
          </mxGeometry>
        </mxCell>
        <mxCell id="gE1-QyrIkyjky4b_8ItB-32" value="" style="endArrow=none;html=1;rounded=0;" edge="1" parent="gE1-QyrIkyjky4b_8ItB-35">
          <mxGeometry width="50" height="50" relative="1" as="geometry">
            <mxPoint x="180" y="100" as="sourcePoint" />
            <mxPoint x="180" y="20" as="targetPoint" />
          </mxGeometry>
        </mxCell>
        <mxCell id="gE1-QyrIkyjky4b_8ItB-33" value="" style="endArrow=none;html=1;rounded=0;" edge="1" parent="gE1-QyrIkyjky4b_8ItB-35">
          <mxGeometry width="50" height="50" relative="1" as="geometry">
            <mxPoint x="240" y="100" as="sourcePoint" />
            <mxPoint x="240" y="20" as="targetPoint" />
          </mxGeometry>
        </mxCell>
        <mxCell id="gE1-QyrIkyjky4b_8ItB-63" value="" style="group" vertex="1" connectable="0" parent="1">
          <mxGeometry x="480" y="450" width="320" height="160" as="geometry" />
        </mxCell>
        <mxCell id="gE1-QyrIkyjky4b_8ItB-48" value="" style="group" vertex="1" connectable="0" parent="gE1-QyrIkyjky4b_8ItB-63">
          <mxGeometry y="60" width="320" height="100" as="geometry" />
        </mxCell>
        <mxCell id="gE1-QyrIkyjky4b_8ItB-49" value="" style="dashed=0;fillStyle=auto;fillColor=#EC7082;gradientColor=none;" vertex="1" parent="gE1-QyrIkyjky4b_8ItB-48">
          <mxGeometry x="20" width="300" height="80" as="geometry" />
        </mxCell>
        <mxCell id="gE1-QyrIkyjky4b_8ItB-50" value="" style="dashed=0;fillStyle=auto;fillColor=#EC7082;gradientColor=none;" vertex="1" parent="gE1-QyrIkyjky4b_8ItB-48">
          <mxGeometry x="10" y="10" width="300" height="80" as="geometry" />
        </mxCell>
        <mxCell id="gE1-QyrIkyjky4b_8ItB-51" value="" style="dashed=0;fillStyle=auto;fillColor=#EC7082;gradientColor=none;" vertex="1" parent="gE1-QyrIkyjky4b_8ItB-48">
          <mxGeometry y="20" width="300" height="80" as="geometry" />
        </mxCell>
        <mxCell id="gE1-QyrIkyjky4b_8ItB-52" value="" style="endArrow=none;html=1;rounded=0;entryX=1;entryY=0.25;entryDx=0;entryDy=0;exitX=0;exitY=0.25;exitDx=0;exitDy=0;" edge="1" parent="gE1-QyrIkyjky4b_8ItB-48" source="gE1-QyrIkyjky4b_8ItB-51" target="gE1-QyrIkyjky4b_8ItB-51">
          <mxGeometry width="50" height="50" relative="1" as="geometry">
            <mxPoint x="180" y="-20" as="sourcePoint" />
            <mxPoint x="260" y="-20" as="targetPoint" />
          </mxGeometry>
        </mxCell>
        <mxCell id="gE1-QyrIkyjky4b_8ItB-53" value="" style="endArrow=none;html=1;rounded=0;entryX=1;entryY=0.25;entryDx=0;entryDy=0;exitX=0;exitY=0.25;exitDx=0;exitDy=0;" edge="1" parent="gE1-QyrIkyjky4b_8ItB-48">
          <mxGeometry width="50" height="50" relative="1" as="geometry">
            <mxPoint y="59.829999999999984" as="sourcePoint" />
            <mxPoint x="300" y="59.829999999999984" as="targetPoint" />
          </mxGeometry>
        </mxCell>
        <mxCell id="gE1-QyrIkyjky4b_8ItB-54" value="" style="endArrow=none;html=1;rounded=0;entryX=1;entryY=0.25;entryDx=0;entryDy=0;exitX=0;exitY=0.25;exitDx=0;exitDy=0;" edge="1" parent="gE1-QyrIkyjky4b_8ItB-48">
          <mxGeometry width="50" height="50" relative="1" as="geometry">
            <mxPoint y="80" as="sourcePoint" />
            <mxPoint x="300" y="80" as="targetPoint" />
          </mxGeometry>
        </mxCell>
        <mxCell id="gE1-QyrIkyjky4b_8ItB-55" value="" style="endArrow=none;html=1;rounded=0;" edge="1" parent="gE1-QyrIkyjky4b_8ItB-48">
          <mxGeometry width="50" height="50" relative="1" as="geometry">
            <mxPoint x="60" y="100" as="sourcePoint" />
            <mxPoint x="60" y="20" as="targetPoint" />
          </mxGeometry>
        </mxCell>
        <mxCell id="gE1-QyrIkyjky4b_8ItB-56" value="" style="endArrow=none;html=1;rounded=0;" edge="1" parent="gE1-QyrIkyjky4b_8ItB-48">
          <mxGeometry width="50" height="50" relative="1" as="geometry">
            <mxPoint x="120" y="100" as="sourcePoint" />
            <mxPoint x="120" y="20" as="targetPoint" />
          </mxGeometry>
        </mxCell>
        <mxCell id="gE1-QyrIkyjky4b_8ItB-57" value="" style="endArrow=none;html=1;rounded=0;" edge="1" parent="gE1-QyrIkyjky4b_8ItB-48">
          <mxGeometry width="50" height="50" relative="1" as="geometry">
            <mxPoint x="180" y="100" as="sourcePoint" />
            <mxPoint x="180" y="20" as="targetPoint" />
          </mxGeometry>
        </mxCell>
        <mxCell id="gE1-QyrIkyjky4b_8ItB-58" value="" style="endArrow=none;html=1;rounded=0;" edge="1" parent="gE1-QyrIkyjky4b_8ItB-48">
          <mxGeometry width="50" height="50" relative="1" as="geometry">
            <mxPoint x="240" y="100" as="sourcePoint" />
            <mxPoint x="240" y="20" as="targetPoint" />
          </mxGeometry>
        </mxCell>
        <mxCell id="gE1-QyrIkyjky4b_8ItB-59" value="Hot Set" style="text;strokeColor=none;align=center;fillColor=none;verticalAlign=middle;rounded=0;fontStyle=0;fontSize=36;" vertex="1" parent="gE1-QyrIkyjky4b_8ItB-63">
          <mxGeometry x="70" width="180" height="60" as="geometry" />
        </mxCell>
        <mxCell id="gE1-QyrIkyjky4b_8ItB-64" value="" style="shape=flexArrow;endArrow=classic;html=1;rounded=0;fillColor=#87AEDC;" edge="1" parent="1">
          <mxGeometry width="50" height="50" relative="1" as="geometry">
            <mxPoint x="380" y="570" as="sourcePoint" />
            <mxPoint x="460" y="570" as="targetPoint" />
          </mxGeometry>
        </mxCell>
        <mxCell id="gE1-QyrIkyjky4b_8ItB-65" value="" style="shape=flexArrow;endArrow=classic;html=1;rounded=0;fillColor=#87AEDC;" edge="1" parent="1">
          <mxGeometry width="50" height="50" relative="1" as="geometry">
            <mxPoint x="380" y="799.58" as="sourcePoint" />
            <mxPoint x="460" y="799.58" as="targetPoint" />
          </mxGeometry>
        </mxCell>
        <mxCell id="gE1-QyrIkyjky4b_8ItB-66" value="" style="shape=flexArrow;endArrow=classic;html=1;rounded=0;fillColor=#87AEDC;" edge="1" parent="1">
          <mxGeometry width="50" height="50" relative="1" as="geometry">
            <mxPoint x="199.41000000000003" y="630" as="sourcePoint" />
            <mxPoint x="199.41000000000003" y="690" as="targetPoint" />
          </mxGeometry>
        </mxCell>
        <mxCell id="gE1-QyrIkyjky4b_8ItB-67" value="I/O&#xa;KV Requests" style="text;strokeColor=none;align=right;fillColor=none;verticalAlign=middle;rounded=0;direction=east;fontSize=36;rotation=90;labelPosition=center;verticalLabelPosition=middle;" vertex="1" parent="1">
          <mxGeometry x="-200" y="340" width="280" height="120" as="geometry" />
        </mxCell>
        <mxCell id="gE1-QyrIkyjky4b_8ItB-68" value="" style="shape=flexArrow;endArrow=classic;html=1;rounded=0;edgeStyle=orthogonalEdgeStyle;fillColor=#87AEDC;" edge="1" parent="1">
          <mxGeometry width="50" height="50" relative="1" as="geometry">
            <mxPoint x="-70" y="534" as="sourcePoint" />
            <mxPoint x="20" y="570" as="targetPoint" />
            <Array as="points">
              <mxPoint x="-70" y="534" />
              <mxPoint x="-70" y="570" />
            </Array>
          </mxGeometry>
        </mxCell>
        <mxCell id="gE1-QyrIkyjky4b_8ItB-71" value="" style="group;fillColor=none;" vertex="1" connectable="0" parent="1">
          <mxGeometry x="480" y="740" width="250" height="110" as="geometry" />
        </mxCell>
        <mxCell id="gE1-QyrIkyjky4b_8ItB-69" value="" style="rounded=1;fontSize=40;fillColor=#FFE2BA;" vertex="1" parent="gE1-QyrIkyjky4b_8ItB-71">
          <mxGeometry y="10" width="250" height="100" as="geometry" />
        </mxCell>
        <mxCell id="gE1-QyrIkyjky4b_8ItB-70" value="Workload&#xa;Analyzer" style="text;strokeColor=none;align=center;fillColor=none;verticalAlign=middle;rounded=0;fontStyle=0;fontSize=36;spacing=0;" vertex="1" parent="gE1-QyrIkyjky4b_8ItB-71">
          <mxGeometry x="35" width="180" height="110" as="geometry" />
        </mxCell>
        <mxCell id="gE1-QyrIkyjky4b_8ItB-72" value="" style="shape=flexArrow;endArrow=classic;html=1;rounded=0;fillColor=#87AEDC;" edge="1" parent="1">
          <mxGeometry width="50" height="50" relative="1" as="geometry">
            <mxPoint x="750" y="800" as="sourcePoint" />
            <mxPoint x="830" y="800" as="targetPoint" />
          </mxGeometry>
        </mxCell>
        <mxCell id="gE1-QyrIkyjky4b_8ItB-73" value="" style="group" vertex="1" connectable="0" parent="1">
          <mxGeometry x="850" y="740" width="280" height="110" as="geometry" />
        </mxCell>
        <mxCell id="gE1-QyrIkyjky4b_8ItB-74" value="" style="rounded=1;fontSize=40;fillColor=#E0EED9;" vertex="1" parent="gE1-QyrIkyjky4b_8ItB-73">
          <mxGeometry y="10" width="280" height="100" as="geometry" />
        </mxCell>
        <mxCell id="gE1-QyrIkyjky4b_8ItB-75" value="Auto-selecting&#xa;Interface" style="text;strokeColor=none;align=center;fillColor=none;verticalAlign=middle;rounded=0;fontStyle=0;fontSize=36;spacing=0;" vertex="1" parent="gE1-QyrIkyjky4b_8ItB-73">
          <mxGeometry x="50" width="180" height="110" as="geometry" />
        </mxCell>
        <mxCell id="gE1-QyrIkyjky4b_8ItB-82" style="edgeStyle=none;rounded=0;orthogonalLoop=1;jettySize=auto;html=1;exitX=1;exitY=0;exitDx=0;exitDy=0;entryX=0;entryY=1;entryDx=0;entryDy=0;endArrow=none;endFill=0;strokeWidth=2;" edge="1" parent="1" source="gE1-QyrIkyjky4b_8ItB-80" target="gE1-QyrIkyjky4b_8ItB-81">
          <mxGeometry relative="1" as="geometry" />
        </mxCell>
        <mxCell id="gE1-QyrIkyjky4b_8ItB-80" value="" style="ellipse;whiteSpace=wrap;html=1;aspect=fixed;strokeWidth=2;" vertex="1" parent="1">
          <mxGeometry x="1122" y="792" width="16" height="16" as="geometry" />
        </mxCell>
        <mxCell id="gE1-QyrIkyjky4b_8ItB-90" style="edgeStyle=orthogonalEdgeStyle;rounded=0;orthogonalLoop=1;jettySize=auto;html=1;exitX=1;exitY=0.5;exitDx=0;exitDy=0;strokeWidth=2;endArrow=none;endFill=0;" edge="1" parent="1" source="gE1-QyrIkyjky4b_8ItB-81">
          <mxGeometry relative="1" as="geometry">
            <mxPoint x="1250" y="800" as="targetPoint" />
          </mxGeometry>
        </mxCell>
        <mxCell id="gE1-QyrIkyjky4b_8ItB-81" value="" style="ellipse;whiteSpace=wrap;html=1;aspect=fixed;strokeWidth=2;" vertex="1" parent="1">
          <mxGeometry x="1170" y="750" width="16" height="16" as="geometry" />
        </mxCell>
        <mxCell id="gE1-QyrIkyjky4b_8ItB-89" style="edgeStyle=none;rounded=0;orthogonalLoop=1;jettySize=auto;html=1;exitX=1;exitY=0.5;exitDx=0;exitDy=0;strokeWidth=2;" edge="1" parent="1" source="gE1-QyrIkyjky4b_8ItB-83">
          <mxGeometry relative="1" as="geometry">
            <mxPoint x="1460" y="800.2" as="targetPoint" />
          </mxGeometry>
        </mxCell>
        <mxCell id="gE1-QyrIkyjky4b_8ItB-83" value="" style="ellipse;whiteSpace=wrap;html=1;aspect=fixed;strokeWidth=2;" vertex="1" parent="1">
          <mxGeometry x="1170" y="792" width="16" height="16" as="geometry" />
        </mxCell>
        <mxCell id="gE1-QyrIkyjky4b_8ItB-91" style="edgeStyle=orthogonalEdgeStyle;rounded=0;orthogonalLoop=1;jettySize=auto;html=1;exitX=1;exitY=0.5;exitDx=0;exitDy=0;strokeWidth=2;endArrow=none;endFill=0;" edge="1" parent="1" source="gE1-QyrIkyjky4b_8ItB-84">
          <mxGeometry relative="1" as="geometry">
            <mxPoint x="1250" y="800" as="targetPoint" />
          </mxGeometry>
        </mxCell>
        <mxCell id="gE1-QyrIkyjky4b_8ItB-84" value="" style="ellipse;whiteSpace=wrap;html=1;aspect=fixed;strokeWidth=2;" vertex="1" parent="1">
          <mxGeometry x="1170" y="834" width="16" height="16" as="geometry" />
        </mxCell>
        <mxCell id="gE1-QyrIkyjky4b_8ItB-86" value="①" style="text;align=center;verticalAlign=middle;resizable=0;points=[];autosize=1;strokeColor=none;fillColor=none;fontStyle=0;fontSize=36;" vertex="1" parent="1">
          <mxGeometry x="1188" y="700" width="60" height="60" as="geometry" />
        </mxCell>
        <mxCell id="gE1-QyrIkyjky4b_8ItB-87" value="②" style="text;align=center;verticalAlign=middle;resizable=0;points=[];autosize=1;strokeColor=none;fillColor=none;fontStyle=0;fontSize=36;" vertex="1" parent="1">
          <mxGeometry x="1188" y="742" width="60" height="60" as="geometry" />
        </mxCell>
        <mxCell id="gE1-QyrIkyjky4b_8ItB-92" value="③" style="text;align=center;verticalAlign=middle;resizable=0;points=[];autosize=1;strokeColor=none;fillColor=none;fontStyle=0;fontSize=36;" vertex="1" parent="1">
          <mxGeometry x="1188" y="784" width="60" height="60" as="geometry" />
        </mxCell>
        <mxCell id="gE1-QyrIkyjky4b_8ItB-98" value="" style="group" vertex="1" connectable="0" parent="1">
          <mxGeometry x="850" y="480" width="380" height="155" as="geometry" />
        </mxCell>
        <mxCell id="gE1-QyrIkyjky4b_8ItB-93" value="①Leveled compaction" style="text;align=left;verticalAlign=middle;resizable=0;points=[];autosize=1;strokeColor=none;fillColor=none;fontStyle=0;fontSize=36;" vertex="1" parent="gE1-QyrIkyjky4b_8ItB-98">
          <mxGeometry width="380" height="60" as="geometry" />
        </mxCell>
        <mxCell id="gE1-QyrIkyjky4b_8ItB-94" value="②Tiered compaction" style="text;align=left;verticalAlign=middle;resizable=0;points=[];autosize=1;strokeColor=none;fillColor=none;fontStyle=0;fontSize=36;" vertex="1" parent="gE1-QyrIkyjky4b_8ItB-98">
          <mxGeometry y="48" width="350" height="60" as="geometry" />
        </mxCell>
        <mxCell id="gE1-QyrIkyjky4b_8ItB-95" value="③Disable compaction" style="text;align=left;verticalAlign=middle;resizable=0;points=[];autosize=1;strokeColor=none;fillColor=none;fontStyle=0;fontSize=36;" vertex="1" parent="gE1-QyrIkyjky4b_8ItB-98">
          <mxGeometry y="95" width="370" height="60" as="geometry" />
        </mxCell>
      </root>
    </mxGraphModel>
  </diagram>
</mxfile>
